# xmcd
#
# Track frame offsets: 
#        150
#        14122
#        33365
#        44157
#        57922
#        70444
#        86179
#        98816
#        113526
#        129158
#        141717
#
# Disc length: 2086 seconds
#
# Revision: 0
# Processed by: cddbd v1.5.2PL0 Copyright (c) Steve Scherf et al.
# Submitted via: ExactAudioCopy v1.0b1
#
DISCID=a408240b
DTITLE=Kelly Spinks - Thank God For Cowboys
DYEAR=1997
DGENRE=Country
TTITLE0=Is This All There Is To A Honky Tonk
TTITLE1=Some People Just Get Lucky
TTITLE2=Too Many Hearts
TTITLE3=Some People Just Get Lucky
TTITLE4=This Time Around
TTITLE5=California Wine
TTITLE6=Mr. Record Man
TTITLE7=If Her Lips Are Moving
TTITLE8=There Goes The Neighborhood
TTITLE9=Don't Say Anything
TTITLE10=Thank God For Cowboys
EXTD=
EXTT0=
EXTT1=
EXTT2=
EXTT3=
EXTT4=
EXTT5=
EXTT6=
EXTT7=
EXTT8=
EXTT9=
EXTT10=
PLAYORDER=
